<svg xmlns="http://www.w3.org/2000/svg" viewBox="0 0 607 433.5"><circle fill="#00AEEF" cx="297.3" cy="174.7" r="111.8"/><path fill="#FFF" d="M407 153.4c0-3.5-2.8-15-6.4-21.4-28.4 20.8-56.6 41.7-85.7 61.6-.6.4-1.4.8-2.2 1-2.4.6-5.1.8-7.4 1.8-9.1 3.8-17.3 8.7-21.4 18.4-.3.9-.5 1.5 0 2.9 1 2.6 2.9 3.8 5.5 4.1 1.2.1 2.5.2 3.7-.1 10.8-2.2 19.7-7.6 26-16.7.4-.5.9-1.1 1.5-1.4 8.8-5 17.6-10 26.3-15.1 13.6-8 26.9-16.6 40.6-24.3 6.6-3.6 13-7.2 19.5-10.8zM284.9 157.6c-2.3-1-4.9-1.2-7.4-1.8-.8-.2-1.5-.5-2.2-1-22.8-15.6-45.2-31.9-67.5-48.2-3.6 3.8-8.9 12.8-10.2 16.1 1.5.9 3 1.7 4.6 2.5 13.8 7.8 27.2 16.4 40.8 24.5 8.7 5.2 17.6 10.1 26.4 15.2.6.3 1.1.9 1.5 1.4 6.4 9.2 15.3 14.6 26.2 16.8 1.2.2 2.5.2 3.7.1 2.6-.3 4.6-1.6 5.6-4.1.4-1.1.3-2.2 0-2.9-4.2-9.8-12.4-14.8-21.5-18.6z"/><g fill="#808285"><path d="M141.9 321.3h11.9v6.9c1.9-4.7 5.1-7.7 10.8-7.4v12.6h-1c-6.2 0-9.7 3.6-9.7 11.4v10.6H142v-34.1zM168.5 343.5v-22.3h11.9v18.4c0 3.7 1.9 5.7 4.8 5.7 2.8 0 5-2 5-5.7v-18.4h11.9v34h-11.9v-4.7c-2.2 2.8-5.3 5.4-10.2 5.4-7.1.1-11.5-4.6-11.5-12.4zM207.4 338.4v-.1c0-11.1 6.9-17.8 15-17.8 5.2 0 8.2 2.3 10.4 4.9v-16h11.9v45.9h-11.9v-4.5c-2.3 2.8-5.3 5.3-10.4 5.3-8-.1-15-6.8-15-17.7zm25.6-.1v-.1c0-4.5-3.1-7.7-6.9-7.7s-7 3.1-7 7.7v.1c0 4.5 3.1 7.7 7 7.7s6.9-3.2 6.9-7.7zM249.9 309.4h12.4v8.8h-12.4v-8.8zm.2 11.9H262v34h-11.9v-34zM267.5 321.3h11.9v4.7c2.2-2.8 5.3-5.4 10.1-5.4 4.5 0 8 2 9.8 5.5 3-3.4 6.4-5.5 11.4-5.5 7.2 0 11.6 4.5 11.6 12.4v22.3h-11.9v-18.5c0-3.7-1.8-5.7-4.7-5.7-2.8 0-4.9 1.9-4.9 5.7v18.5h-11.9v-18.5c0-3.7-1.8-5.7-4.7-5.7s-4.8 1.9-4.8 5.7v18.5h-11.9v-34zM327.2 338.4v-.1c0-9.9 7.1-17.8 17.2-17.8 11.8 0 17.2 8.6 17.2 18.6 0 .8 0 1.6-.1 2.5h-22.8c.9 3.7 3.6 5.6 7.4 5.6 2.8 0 5.1-1.1 7.5-3.5l6.6 5.5c-3.3 4.1-8 6.9-14.8 6.9-10.7 0-18.2-7.1-18.2-17.7zm23.1-2.9c-.4-3.8-2.6-6.2-5.9-6.2-3.1 0-5.3 2.5-5.9 6.2h11.8zM366.6 321.3h11.9v4.8c2.2-2.8 5.3-5.5 10.2-5.5 7.2 0 11.6 4.8 11.6 12.5v22.3h-11.9V337c0-3.7-1.9-5.7-4.8-5.7s-5 2-5 5.7v18.4h-11.9v-34.1zM408.5 344.7v-13.8h-4v-9.6h4v-8.6h11.9v8.6h7.9v9.6h-7.9v11.5c0 2.4 1.1 3.4 3.3 3.4 1.6 0 3.1-.4 4.5-1.1v9.4c-2.1 1.2-5 1.9-8.3 1.9-7.1 0-11.4-3.2-11.4-11.3zM431 351l4.5-7.2c3.9 2.6 8.2 3.9 11.7 3.9 2.1 0 3-.6 3-1.8v-.1c0-1.3-1.9-1.9-5.5-2.9-6.7-1.8-12.1-4-12.1-10.9v-.1c0-7.2 5.8-11.3 13.6-11.3 5 0 10.1 1.4 14 4l-4.1 7.5c-3.5-1.9-7.4-3.1-10.1-3.1-1.8 0-2.8.7-2.8 1.6v.1c0 1.3 1.9 1.9 5.5 3 6.7 1.9 12.1 4.2 12.1 10.8v.1c0 7.5-5.6 11.4-13.9 11.4-5.6 0-11.2-1.6-15.9-5z"/></g></svg>